# xmcd
#
# Track frame offsets: 
#        150
#        26425
#        46112
#        67575
#        90575
#        114387
#        130800
#        150812
#        170925
#        194650
#        216300
#        235575
#        256975
#        281175
#
# Disc length: 4079 seconds
#
# Revision: 0
# Processed by: cddbd v1.5.2PL0 Copyright (c) Steve Scherf et al.
# Submitted via: ExactAudioCopyFreeDBPlugin 1.0
#
DISCID=b90fed0e
DTITLE=Various Artist - Đêm bơ vơ
DYEAR=1992
DGENRE=Vietnamese
TTITLE0=Hương Lan, Thanh Phong - Đêm bơ vơ
TTITLE1=Hương Lan - Trăm năm bến cũ
TTITLE2=Thanh Phong - Giọt lệ đài trang
TTITLE3=Hương Lan, Thanh Phong - Như một cơn mê
TTITLE4=Thanh Phong - Thư người em gái Thành Đô
TTITLE5=Hương Lan - Phượng buồn
TTITLE6=Hương Lan, Thanh Phong - Thiệp hồng anh viết tên em
TTITLE7=Thanh Phong - Tình em biển rộng sông dài
TTITLE8=Hương Lan - Chờ anh bên đồi
TTITLE9=Hương Lan, Thanh Phong - Hoa nở về đêm
TTITLE10=Hương Lan - Những ngày mùa hạ trở về
TTITLE11=Hương Lan, Thanh Phong - Đa tạ
TTITLE12=Trúc đào
TTITLE13=Về đâu mái tóc người thương
EXTD=
EXTT0=
EXTT1=
EXTT2=
EXTT3=
EXTT4=
EXTT5=
EXTT6=
EXTT7=
EXTT8=
EXTT9=
EXTT10=
EXTT11=
EXTT12=
EXTT13=
PLAYORDER=
